<svg xmlns="http://www.w3.org/2000/svg" xmlns:xlink="http://www.w3.org/1999/xlink" width="1920" zoomAndPan="magnify" viewBox="0 0 1440 809.999993" height="1080" preserveAspectRatio="xMidYMid meet" version="1.0"><defs><clipPath id="ecb64ff6ec"><path d="M 507 310.699219 L 603 310.699219 L 603 498.949219 L 507 498.949219 Z M 507 310.699219 " clip-rule="nonzero"/></clipPath><clipPath id="265655584d"><path d="M 665.25 321.601562 L 832.5 321.601562 L 832.5 488.101562 L 665.25 488.101562 Z M 665.25 321.601562 " clip-rule="nonzero"/></clipPath><clipPath id="21551158db"><path d="M 329.25 344 L 470.25 344 L 470.25 504.449219 L 329.25 504.449219 Z M 329.25 344 " clip-rule="nonzero"/></clipPath><clipPath id="b807bb42c9"><path d="M 342 305.699219 L 369 305.699219 L 369 333 L 342 333 Z M 342 305.699219 " clip-rule="nonzero"/></clipPath><clipPath id="1ad3e0a00f"><path d="M 372 305.699219 L 398 305.699219 L 398 333 L 372 333 Z M 372 305.699219 " clip-rule="nonzero"/></clipPath><clipPath id="be1e961f34"><path d="M 401 305.699219 L 432 305.699219 L 432 333 L 401 333 Z M 401 305.699219 " clip-rule="nonzero"/></clipPath><clipPath id="ab0e377fae"><path d="M 435 305.699219 L 458 305.699219 L 458 333 L 435 333 Z M 435 305.699219 " clip-rule="nonzero"/></clipPath><clipPath id="de523ce3c5"><path d="M 966 391 L 1110.300781 391 L 1110.300781 430 L 966 430 Z M 966 391 " clip-rule="nonzero"/></clipPath></defs><rect x="-144" width="1728" fill="#ffffff" y="-80.999999" height="971.999992" fill-opacity="1"/><rect x="-144" width="1728" fill="#ffffff" y="-80.999999" height="971.999992" fill-opacity="1"/><path fill="#9ef5cf" d="M 540.628906 410.53125 C 540.628906 410.53125 535.660156 413.546875 544.085938 414.410156 C 554.238281 415.703125 559.636719 415.488281 570.871094 413.332031 C 570.871094 413.332031 573.894531 415.273438 578 416.78125 C 552.726562 427.5625 520.753906 416.136719 540.628906 410.53125 Z M 537.386719 396.515625 C 537.386719 396.515625 531.988281 400.609375 540.410156 401.472656 C 551.429688 402.554688 560.070312 402.769531 574.976562 399.75 C 574.976562 399.75 576.917969 401.90625 580.160156 402.984375 C 549.699219 412.039062 515.566406 403.847656 537.386719 396.515625 Z M 597.011719 421.09375 C 597.011719 421.09375 600.683594 424.113281 592.90625 426.484375 C 578.433594 430.796875 532.207031 432.089844 519.242188 426.484375 C 514.707031 424.542969 523.347656 421.738281 526.15625 421.308594 C 528.960938 420.660156 530.476562 420.660156 530.476562 420.660156 C 525.507812 417.210938 497.425781 427.777344 516.21875 430.796875 C 567.847656 439.203125 610.402344 427.128906 597.011719 421.09375 Z M 543.003906 381.851562 C 543.003906 381.851562 519.460938 387.457031 534.582031 389.398438 C 541.0625 390.257812 553.808594 390.042969 565.6875 389.179688 C 575.410156 388.320312 585.128906 386.59375 585.128906 386.59375 C 585.128906 386.59375 581.671875 388.101562 579.296875 389.613281 C 555.320312 395.863281 509.308594 393.0625 522.484375 386.59375 C 533.714844 381.203125 543.003906 381.851562 543.003906 381.851562 Z M 585.128906 405.351562 C 609.324219 392.847656 598.089844 380.773438 590.3125 382.28125 C 588.371094 382.714844 587.503906 383.144531 587.503906 383.144531 C 587.503906 383.144531 588.152344 381.851562 589.664062 381.417969 C 605.003906 376.027344 617.101562 397.589844 584.695312 406 C 584.695312 406 584.914062 405.78125 585.128906 405.351562 Z M 545.382812 439.421875 C 568.710938 440.929688 604.351562 438.558594 605.21875 427.5625 C 605.21875 427.5625 603.492188 431.875 585.996094 435.109375 C 566.121094 438.773438 541.496094 438.34375 527.027344 435.96875 C 527.027344 435.96875 530.050781 438.558594 545.386719 439.417969 Z M 545.382812 439.421875 " fill-opacity="1" fill-rule="nonzero"/><g clip-path="url(#ecb64ff6ec)"><path fill="#f6f6f6" d="M 570.4375 310.699219 C 570.4375 310.699219 583.832031 324.28125 557.691406 344.765625 C 536.738281 361.367188 552.941406 370.855469 557.691406 381.636719 C 545.378906 370.640625 536.523438 360.9375 542.570312 351.878906 C 551.429688 338.511719 575.839844 332.046875 570.441406 310.699219 Z M 563.53125 372.582031 C 569.792969 379.695312 561.800781 386.164062 561.800781 386.164062 C 561.800781 386.164062 577.785156 377.972656 570.441406 367.835938 C 563.746094 358.136719 558.5625 353.390625 586.644531 337.222656 C 586.644531 337.222656 542.359375 348.222656 563.527344 372.585938 Z M 547.542969 488.363281 L 547.542969 467.234375 C 547.542969 461.84375 544.515625 458.175781 536.957031 458.175781 C 532.636719 458.175781 528.964844 459.253906 525.722656 460.542969 L 526.804688 464.425781 C 529.175781 463.5625 532.203125 462.699219 535.445312 462.699219 C 539.546875 462.699219 541.492188 464.425781 541.492188 467.875 L 541.492188 470.679688 L 539.332031 470.679688 C 528.964844 470.679688 524.210938 474.558594 524.210938 480.8125 C 524.210938 485.988281 527.453125 489.007812 533.285156 489.007812 C 536.957031 489.007812 539.765625 487.28125 542.359375 485.125 L 542.789062 488.359375 L 547.542969 488.359375 Z M 541.492188 481.464844 C 539.332031 483.40625 536.957031 484.484375 534.796875 484.484375 C 531.988281 484.484375 530.257812 482.757812 530.257812 479.738281 C 530.257812 476.71875 531.988281 474.5625 538.898438 474.5625 L 541.492188 474.5625 Z M 567.847656 488.363281 L 560.285156 488.363281 L 551.214844 458.824219 L 557.695312 458.824219 L 563.3125 476.9375 L 564.609375 482.324219 C 567.414062 474.5625 569.578125 466.585938 570.441406 458.824219 L 576.921875 458.824219 C 575.191406 468.527344 572.167969 479.09375 567.847656 488.363281 Z M 602.84375 488.363281 L 602.84375 467.234375 C 602.84375 461.84375 599.816406 458.175781 592.257812 458.175781 C 587.9375 458.175781 584.265625 459.253906 581.023438 460.542969 L 581.886719 464.425781 C 584.480469 463.5625 587.503906 462.699219 590.746094 462.699219 C 594.847656 462.699219 596.792969 464.425781 596.792969 467.875 L 596.792969 470.679688 L 594.632812 470.679688 C 584.265625 470.679688 579.511719 474.558594 579.511719 480.8125 C 579.511719 485.988281 582.535156 489.007812 588.367188 489.007812 C 592.257812 489.007812 595.066406 487.28125 597.65625 485.125 L 598.089844 488.359375 L 602.84375 488.359375 Z M 596.792969 481.464844 C 594.632812 483.40625 592.257812 484.484375 590.097656 484.484375 C 587.289062 484.484375 585.5625 482.757812 585.5625 479.738281 C 585.5625 476.71875 587.289062 474.5625 594.203125 474.5625 L 596.792969 474.5625 Z M 517.515625 493.324219 C 515.789062 495.910156 513.195312 497.851562 509.957031 498.929688 L 507.144531 495.480469 C 509.304688 494.1875 511.464844 492.246094 512.328125 490.523438 C 513.195312 489.011719 513.410156 486.855469 513.410156 481.898438 L 513.410156 448.261719 L 519.890625 448.261719 L 519.890625 481.464844 C 519.890625 488.148438 519.242188 490.738281 517.519531 493.324219 Z M 517.515625 493.324219 " fill-opacity="1" fill-rule="nonzero"/></g><g clip-path="url(#265655584d)"><path fill="#9ef5cf" d="M 665.25 321.601562 L 832.5 321.601562 L 832.5 488.101562 L 665.25 488.101562 Z M 665.25 321.601562 " fill-opacity="1" fill-rule="nonzero"/></g><path fill="#f6f6f6" d="M 709.226562 460.738281 L 722.027344 453.03125 C 724.496094 457.386719 726.742188 461.078125 732.128906 461.078125 C 737.292969 461.078125 740.550781 459.058594 740.550781 451.242188 L 740.550781 398.039062 L 756.265625 398.039062 L 756.265625 451.464844 C 756.265625 467.664062 746.726562 475.046875 732.804688 475.046875 C 720.230469 475.046875 712.929688 468.5625 709.226562 460.738281 " fill-opacity="1" fill-rule="nonzero"/><path fill="#f6f6f6" d="M 764.804688 459.058594 L 777.601562 451.683594 C 780.972656 457.160156 785.351562 461.1875 793.089844 461.1875 C 799.605469 461.1875 803.761719 457.949219 803.761719 453.472656 C 803.761719 448.109375 799.496094 446.207031 792.308594 443.078125 L 788.382812 441.402344 C 777.039062 436.59375 769.519531 430.566406 769.519531 417.820312 C 769.519531 406.085938 778.496094 397.144531 792.535156 397.144531 C 802.527344 397.144531 809.710938 400.609375 814.875 409.664062 L 802.636719 417.488281 C 799.945312 412.679688 797.023438 410.78125 792.535156 410.78125 C 787.929688 410.78125 785.011719 413.6875 785.011719 417.488281 C 785.011719 422.183594 787.929688 424.082031 794.667969 426.988281 L 798.59375 428.660156 C 811.953125 434.363281 819.480469 440.171875 819.480469 453.253906 C 819.480469 467.332031 808.367188 475.046875 793.429688 475.046875 C 778.835938 475.046875 769.410156 468.113281 764.804688 459.058594 " fill-opacity="1" fill-rule="nonzero"/><g clip-path="url(#21551158db)"><path fill="#9ef5cf" d="M 470.210938 344.757812 L 457.378906 488.457031 L 399.6875 504.441406 L 342.160156 488.480469 L 329.34375 344.757812 L 470.207031 344.753906 L 470.210938 344.753906 Z M 470.210938 344.757812 " fill-opacity="1" fill-rule="nonzero"/></g><path fill="#9ef5cf" d="M 399.777344 492.226562 L 446.394531 479.308594 L 457.359375 356.511719 L 399.777344 356.507812 Z M 399.777344 492.226562 " fill-opacity="1" fill-rule="nonzero"/><path fill="#f6f6f6" d="M 374.828125 391.761719 L 399.777344 391.761719 L 399.777344 374.132812 L 355.554688 374.132812 L 355.976562 378.863281 L 360.3125 427.4375 L 399.777344 427.4375 L 399.777344 409.816406 L 376.441406 409.816406 Z M 374.828125 391.761719 " fill-opacity="1" fill-rule="nonzero"/><path fill="#f6f6f6" d="M 378.804688 436.253906 L 361.101562 436.253906 L 363.570312 463.933594 L 399.695312 473.957031 L 399.777344 473.933594 L 399.777344 455.59375 L 399.699219 455.617188 L 380.058594 450.3125 Z M 378.804688 436.253906 " fill-opacity="1" fill-rule="nonzero"/><g clip-path="url(#b807bb42c9)"><path fill="#f6f6f6" d="M 342.449219 305.699219 L 351.410156 305.699219 L 351.410156 314.550781 L 359.609375 314.550781 L 359.609375 305.699219 L 368.570312 305.699219 L 368.570312 332.5 L 359.609375 332.5 L 359.609375 323.527344 L 351.410156 323.527344 L 351.410156 332.5 L 342.449219 332.5 Z M 342.449219 305.699219 " fill-opacity="1" fill-rule="nonzero"/></g><g clip-path="url(#1ad3e0a00f)"><path fill="#f6f6f6" d="M 380.359375 314.585938 L 372.46875 314.585938 L 372.46875 305.699219 L 397.214844 305.699219 L 397.214844 314.585938 L 389.320312 314.585938 L 389.320312 332.5 L 380.359375 332.5 Z M 380.359375 314.585938 " fill-opacity="1" fill-rule="nonzero"/></g><g clip-path="url(#be1e961f34)"><path fill="#f6f6f6" d="M 401.140625 305.699219 L 410.484375 305.699219 L 416.234375 315.117188 L 421.976562 305.699219 L 431.324219 305.699219 L 431.324219 332.5 L 422.402344 332.5 L 422.402344 319.214844 L 416.234375 328.746094 L 416.078125 328.746094 L 409.910156 319.214844 L 409.910156 332.5 L 401.140625 332.5 Z M 401.140625 305.699219 " fill-opacity="1" fill-rule="nonzero"/></g><g clip-path="url(#ab0e377fae)"><path fill="#f6f6f6" d="M 435.785156 305.699219 L 444.75 305.699219 L 444.75 323.640625 L 457.355469 323.640625 L 457.355469 332.5 L 435.785156 332.5 Z M 435.785156 305.699219 " fill-opacity="1" fill-rule="nonzero"/></g><path fill="#f6f6f6" d="M 399.71875 427.4375 L 421.433594 427.4375 L 419.386719 450.300781 L 399.71875 455.609375 L 399.71875 473.945312 L 435.867188 463.933594 L 436.132812 460.953125 L 440.28125 414.546875 L 440.710938 409.816406 L 399.71875 409.816406 Z M 399.71875 427.4375 " fill-opacity="1" fill-rule="nonzero"/><path fill="#f6f6f6" d="M 399.71875 391.71875 L 399.71875 391.761719 L 442.3125 391.761719 L 442.667969 387.800781 L 443.472656 378.863281 L 443.890625 374.132812 L 399.71875 374.132812 Z M 399.71875 391.71875 " fill-opacity="1" fill-rule="nonzero"/><path fill="#9ef5cf" d="M 952.929688 370.015625 C 951.835938 372.644531 950.453125 375.109375 948.777344 377.410156 C 938.847656 367.441406 924.347656 363.609375 910.820312 367.390625 C 897.292969 371.175781 886.816406 381.914062 883.410156 395.59375 C 880.003906 409.273438 884.175781 423.730469 894.347656 433.457031 L 895.789062 434.734375 C 897.15625 435.890625 898.59375 436.949219 900.109375 437.90625 C 901.621094 438.863281 903.191406 439.714844 904.820312 440.453125 C 906.449219 441.195312 908.121094 441.820312 909.835938 442.328125 C 911.550781 442.839844 913.292969 443.226562 915.0625 443.496094 C 916.828125 443.765625 918.605469 443.910156 920.394531 443.933594 C 922.183594 443.957031 923.964844 443.855469 925.738281 443.632812 C 927.511719 443.410156 929.261719 443.0625 930.992188 442.597656 C 932.71875 442.132812 934.40625 441.550781 936.050781 440.851562 C 937.699219 440.152344 939.289062 439.34375 940.828125 438.421875 C 942.363281 437.503906 943.828125 436.484375 945.226562 435.363281 C 946.621094 434.238281 947.9375 433.027344 949.167969 431.722656 C 950.394531 430.417969 951.53125 429.039062 952.574219 427.578125 C 953.613281 426.117188 954.550781 424.589844 955.382812 423 C 956.210938 421.410156 956.933594 419.769531 957.539062 418.082031 C 958.144531 416.390625 958.632812 414.667969 959.003906 412.910156 C 959.375 411.15625 959.625 409.378906 959.753906 407.589844 C 960.8125 397.621094 957.902344 385.011719 952.929688 370.019531 Z M 899.890625 433.679688 C 899.042969 434.730469 897.644531 435.167969 896.351562 434.785156 C 895.058594 434.402344 894.125 433.273438 893.984375 431.925781 C 893.84375 430.582031 894.523438 429.28125 895.707031 428.636719 C 896.894531 427.988281 898.347656 428.125 899.394531 428.976562 C 900.824219 430.140625 901.042969 432.246094 899.886719 433.683594 Z M 952.765625 421.957031 C 943.144531 434.824219 922.609375 430.484375 909.441406 431.109375 C 909.441406 431.109375 907.109375 431.246094 904.757812 431.632812 C 904.757812 431.632812 905.644531 431.253906 906.777344 430.828125 C 916.027344 427.589844 920.394531 426.972656 926.011719 424.066406 C 936.589844 418.667969 947.050781 406.839844 949.226562 394.546875 C 945.203125 406.375 932.984375 416.542969 921.863281 420.675781 C 914.242188 423.496094 900.472656 426.242188 900.472656 426.242188 L 899.917969 425.945312 C 890.542969 421.371094 890.253906 400.992188 907.273438 394.417969 C 914.753906 391.53125 921.871094 393.117188 929.929688 391.183594 C 938.53125 389.128906 948.484375 382.65625 952.539062 374.207031 C 957.066406 387.722656 962.523438 408.855469 952.738281 421.964844 Z M 952.765625 421.957031 " fill-opacity="1" fill-rule="nonzero"/><g clip-path="url(#de523ce3c5)"><path fill="#9ef5cf" d="M 968.070312 417.691406 C 967.675781 417.453125 967.371094 417.132812 967.15625 416.722656 C 966.9375 416.316406 966.839844 415.882812 966.863281 415.421875 C 966.859375 415.070312 966.921875 414.730469 967.054688 414.402344 C 967.1875 414.078125 967.378906 413.789062 967.628906 413.539062 C 967.875 413.292969 968.164062 413.101562 968.488281 412.96875 C 968.8125 412.835938 969.152344 412.769531 969.503906 412.777344 C 970 412.777344 970.464844 412.90625 970.898438 413.152344 C 973.351562 414.894531 976.078125 415.8125 979.082031 415.90625 C 981.878906 415.90625 983.492188 414.691406 983.492188 412.8125 L 983.492188 412.707031 C 983.492188 410.492188 980.46875 409.734375 977.140625 408.707031 C 972.945312 407.492188 968.261719 405.789062 968.261719 400.332031 L 968.261719 400.222656 C 968.261719 394.8125 972.730469 391.53125 978.378906 391.53125 C 981.527344 391.589844 984.488281 392.367188 987.261719 393.859375 C 987.734375 394.09375 988.113281 394.433594 988.394531 394.878906 C 988.675781 395.328125 988.816406 395.820312 988.820312 396.347656 C 988.824219 396.707031 988.757812 397.046875 988.621094 397.378906 C 988.484375 397.707031 988.289062 397.996094 988.035156 398.246094 C 987.78125 398.496094 987.488281 398.6875 987.160156 398.816406 C 986.828125 398.949219 986.488281 399.011719 986.132812 399 C 985.671875 399.007812 985.242188 398.898438 984.84375 398.671875 C 982.53125 397.457031 980.160156 396.726562 978.195312 396.726562 C 975.671875 396.726562 974.214844 397.941406 974.214844 399.535156 L 974.214844 399.644531 C 974.214844 401.753906 977.296875 402.621094 980.617188 403.699219 C 984.765625 405.007812 989.441406 406.886719 989.441406 412.019531 L 989.441406 412.128906 C 989.441406 418.125 984.8125 421.097656 978.898438 421.097656 C 976.964844 421.082031 975.074219 420.785156 973.230469 420.207031 C 971.382812 419.625 969.664062 418.785156 968.070312 417.691406 Z M 991.898438 394.835938 C 991.890625 394.398438 991.964844 393.980469 992.125 393.578125 C 992.285156 393.171875 992.515625 392.816406 992.820312 392.503906 C 993.121094 392.195312 993.472656 391.957031 993.871094 391.789062 C 994.269531 391.621094 994.6875 391.539062 995.121094 391.539062 C 995.554688 391.535156 995.976562 391.617188 996.378906 391.785156 C 996.78125 391.949219 997.136719 392.1875 997.445312 392.5 C 997.753906 392.808594 997.992188 393.164062 998.15625 393.570312 C 998.320312 393.976562 998.402344 394.398438 998.402344 394.835938 L 998.402344 396.8125 C 1000.5 393.839844 1003.457031 391.460938 1008.070312 391.460938 C 1014.714844 391.460938 1021.246094 396.753906 1021.246094 406.269531 L 1021.246094 406.378906 C 1021.246094 415.832031 1014.785156 421.179688 1008.070312 421.179688 C 1003.328125 421.179688 1000.363281 418.800781 998.402344 416.15625 L 998.402344 426.230469 C 998.402344 426.664062 998.320312 427.082031 998.152344 427.480469 C 997.988281 427.882812 997.753906 428.238281 997.445312 428.542969 C 997.140625 428.851562 996.789062 429.085938 996.390625 429.253906 C 995.992188 429.417969 995.574219 429.5 995.144531 429.5 C 994.710938 429.5 994.296875 429.417969 993.898438 429.253906 C 993.5 429.085938 993.144531 428.851562 992.839844 428.542969 C 992.535156 428.238281 992.300781 427.882812 992.136719 427.480469 C 991.96875 427.082031 991.886719 426.664062 991.886719 426.230469 Z M 1014.660156 406.367188 L 1014.660156 406.257812 C 1014.660156 400.746094 1010.945312 397.152344 1006.53125 397.152344 C 1002.121094 397.152344 998.25 400.84375 998.25 406.257812 L 998.25 406.367188 C 998.25 411.828125 1002.121094 415.472656 1006.53125 415.472656 C 1010.945312 415.472656 1014.660156 411.988281 1014.660156 406.351562 Z M 1023.742188 394.839844 C 1023.730469 394.40625 1023.808594 393.984375 1023.96875 393.582031 C 1024.128906 393.175781 1024.359375 392.820312 1024.664062 392.507812 C 1024.964844 392.199219 1025.316406 391.960938 1025.71875 391.792969 C 1026.117188 391.625 1026.535156 391.542969 1026.96875 391.542969 C 1027.402344 391.542969 1027.824219 391.621094 1028.226562 391.789062 C 1028.628906 391.953125 1028.988281 392.191406 1029.296875 392.503906 C 1029.605469 392.8125 1029.839844 393.167969 1030.007812 393.574219 C 1030.171875 393.980469 1030.253906 394.402344 1030.25 394.839844 L 1030.25 396.414062 C 1030.574219 393.984375 1034.558594 391.554688 1037.402344 391.554688 C 1037.621094 391.542969 1037.835938 391.550781 1038.046875 391.578125 C 1038.261719 391.609375 1038.46875 391.664062 1038.671875 391.742188 C 1038.875 391.816406 1039.066406 391.914062 1039.25 392.03125 C 1039.433594 392.148438 1039.601562 392.285156 1039.753906 392.4375 C 1039.90625 392.589844 1040.039062 392.757812 1040.15625 392.941406 C 1040.273438 393.125 1040.371094 393.320312 1040.445312 393.523438 C 1040.523438 393.726562 1040.574219 393.933594 1040.605469 394.148438 C 1040.636719 394.363281 1040.644531 394.582031 1040.628906 394.796875 C 1040.644531 395.171875 1040.589844 395.535156 1040.46875 395.890625 C 1040.347656 396.246094 1040.167969 396.566406 1039.933594 396.855469 C 1039.695312 397.144531 1039.414062 397.382812 1039.089844 397.570312 C 1038.765625 397.753906 1038.417969 397.875 1038.050781 397.933594 C 1033.421875 398.742188 1030.25 402.789062 1030.25 408.441406 L 1030.25 417.847656 C 1030.246094 418.28125 1030.164062 418.699219 1029.996094 419.097656 C 1029.828125 419.496094 1029.589844 419.847656 1029.28125 420.152344 C 1028.972656 420.457031 1028.617188 420.691406 1028.21875 420.851562 C 1027.816406 421.015625 1027.402344 421.09375 1026.96875 421.089844 C 1026.539062 421.09375 1026.128906 421.011719 1025.730469 420.847656 C 1025.332031 420.683594 1024.984375 420.449219 1024.679688 420.148438 C 1024.375 419.84375 1024.144531 419.492188 1023.980469 419.089844 C 1023.820312 418.691406 1023.738281 418.277344 1023.742188 417.847656 Z M 1043.09375 394.855469 C 1043.085938 394.417969 1043.164062 394 1043.324219 393.597656 C 1043.484375 393.191406 1043.714844 392.835938 1044.019531 392.527344 C 1044.320312 392.214844 1044.671875 391.976562 1045.074219 391.808594 C 1045.472656 391.640625 1045.890625 391.558594 1046.320312 391.558594 C 1046.757812 391.554688 1047.175781 391.636719 1047.582031 391.804688 C 1047.984375 391.972656 1048.339844 392.207031 1048.648438 392.519531 C 1048.957031 392.828125 1049.191406 393.183594 1049.359375 393.589844 C 1049.523438 393.996094 1049.605469 394.417969 1049.601562 394.855469 L 1049.601562 417.867188 C 1049.585938 418.289062 1049.492188 418.695312 1049.320312 419.082031 C 1049.148438 419.464844 1048.910156 419.804688 1048.605469 420.097656 C 1048.304688 420.394531 1047.957031 420.617188 1047.566406 420.777344 C 1047.175781 420.933594 1046.769531 421.015625 1046.347656 421.015625 C 1045.929688 421.015625 1045.523438 420.933594 1045.132812 420.777344 C 1044.742188 420.617188 1044.394531 420.394531 1044.089844 420.097656 C 1043.789062 419.804688 1043.550781 419.464844 1043.378906 419.082031 C 1043.203125 418.695312 1043.109375 418.289062 1043.09375 417.867188 Z M 1052.890625 394.867188 C 1052.882812 394.429688 1052.957031 394.011719 1053.117188 393.609375 C 1053.277344 393.203125 1053.507812 392.847656 1053.8125 392.535156 C 1054.117188 392.226562 1054.46875 391.988281 1054.867188 391.820312 C 1055.269531 391.652344 1055.683594 391.570312 1056.117188 391.570312 C 1056.554688 391.566406 1056.972656 391.648438 1057.375 391.816406 C 1057.777344 391.984375 1058.136719 392.222656 1058.441406 392.53125 C 1058.75 392.839844 1058.988281 393.199219 1059.152344 393.601562 C 1059.320312 394.007812 1059.402344 394.429688 1059.398438 394.867188 L 1059.398438 396.207031 C 1059.871094 395.464844 1060.433594 394.796875 1061.082031 394.199219 C 1061.730469 393.605469 1062.441406 393.105469 1063.222656 392.695312 C 1064 392.289062 1064.816406 391.988281 1065.675781 391.796875 C 1066.53125 391.601562 1067.398438 391.523438 1068.277344 391.558594 C 1074.675781 391.558594 1078.390625 395.882812 1078.390625 402.484375 L 1078.390625 417.851562 C 1078.398438 418.285156 1078.320312 418.699219 1078.160156 419.101562 C 1078 419.5 1077.765625 419.855469 1077.460938 420.160156 C 1077.160156 420.464844 1076.808594 420.699219 1076.40625 420.859375 C 1076.007812 421.023438 1075.59375 421.101562 1075.164062 421.09375 C 1074.730469 421.105469 1074.308594 421.03125 1073.90625 420.871094 C 1073.5 420.710938 1073.140625 420.476562 1072.828125 420.171875 C 1072.519531 419.867188 1072.277344 419.515625 1072.109375 419.109375 C 1071.941406 418.707031 1071.859375 418.289062 1071.859375 417.851562 L 1071.859375 404.496094 C 1071.859375 400.066406 1069.652344 397.523438 1065.78125 397.523438 C 1062.015625 397.523438 1059.382812 400.171875 1059.382812 404.605469 L 1059.382812 417.847656 C 1059.363281 418.269531 1059.269531 418.675781 1059.097656 419.058594 C 1058.925781 419.445312 1058.6875 419.785156 1058.386719 420.078125 C 1058.082031 420.371094 1057.734375 420.597656 1057.34375 420.757812 C 1056.953125 420.914062 1056.546875 420.992188 1056.125 420.992188 C 1055.707031 420.992188 1055.300781 420.914062 1054.910156 420.757812 C 1054.519531 420.597656 1054.171875 420.371094 1053.867188 420.078125 C 1053.566406 419.785156 1053.328125 419.445312 1053.15625 419.058594 C 1052.984375 418.675781 1052.890625 418.269531 1052.871094 417.847656 Z M 1107.007812 391.484375 C 1106.570312 391.480469 1106.152344 391.5625 1105.75 391.730469 C 1105.34375 391.898438 1104.988281 392.136719 1104.679688 392.445312 C 1104.375 392.753906 1104.136719 393.113281 1103.96875 393.515625 C 1103.804688 393.921875 1103.722656 394.34375 1103.726562 394.78125 L 1103.726562 396.722656 C 1101.628906 393.746094 1098.667969 391.363281 1094.058594 391.363281 C 1087.410156 391.363281 1080.871094 396.65625 1080.871094 406.167969 L 1080.871094 406.277344 C 1080.855469 415.738281 1087.3125 421.078125 1094.039062 421.078125 C 1098.746094 421.078125 1101.703125 418.730469 1103.707031 416.097656 C 1103.382812 421.238281 1100.25 423.949219 1094.757812 423.949219 C 1091.640625 423.980469 1088.730469 423.226562 1086.019531 421.6875 C 1085.648438 421.503906 1085.253906 421.414062 1084.839844 421.417969 C 1084.480469 421.417969 1084.136719 421.488281 1083.804688 421.625 C 1083.472656 421.757812 1083.175781 421.953125 1082.917969 422.203125 C 1082.664062 422.457031 1082.460938 422.746094 1082.320312 423.078125 C 1082.175781 423.410156 1082.101562 423.753906 1082.089844 424.113281 C 1082.085938 424.398438 1082.125 424.679688 1082.207031 424.953125 C 1082.289062 425.222656 1082.410156 425.476562 1082.574219 425.710938 C 1082.738281 425.945312 1082.933594 426.148438 1083.160156 426.320312 C 1083.386719 426.488281 1083.632812 426.621094 1083.902344 426.710938 C 1087.363281 428.425781 1091.019531 429.273438 1094.875 429.257812 C 1099.988281 429.257812 1103.96875 428.042969 1106.558594 425.421875 C 1108.917969 423.042969 1110.183594 419.46875 1110.183594 414.667969 L 1110.183594 394.769531 C 1110.191406 394.335938 1110.117188 393.921875 1109.957031 393.519531 C 1109.800781 393.121094 1109.574219 392.765625 1109.273438 392.457031 C 1108.976562 392.148438 1108.632812 391.90625 1108.238281 391.734375 C 1107.84375 391.566406 1107.433594 391.476562 1107.003906 391.472656 Z M 1095.597656 415.429688 C 1091.132812 415.429688 1087.480469 411.914062 1087.480469 406.296875 L 1087.480469 406.1875 C 1087.480469 400.675781 1091.191406 397.082031 1095.597656 397.082031 C 1100.007812 397.082031 1103.882812 400.730469 1103.882812 406.1875 L 1103.882812 406.296875 C 1103.882812 411.75 1100.015625 415.429688 1095.597656 415.429688 Z M 1095.597656 415.429688 " fill-opacity="1" fill-rule="nonzero"/></g><path fill="#9ef5cf" d="M 1049.632812 383.679688 C 1049.632812 384.117188 1049.550781 384.539062 1049.382812 384.941406 C 1049.214844 385.34375 1048.980469 385.703125 1048.671875 386.011719 C 1048.363281 386.320312 1048.007812 386.558594 1047.605469 386.726562 C 1047.203125 386.890625 1046.785156 386.976562 1046.351562 386.976562 C 1045.917969 386.976562 1045.496094 386.890625 1045.09375 386.726562 C 1044.695312 386.558594 1044.339844 386.320312 1044.03125 386.011719 C 1043.722656 385.703125 1043.484375 385.34375 1043.320312 384.941406 C 1043.152344 384.539062 1043.070312 384.117188 1043.070312 383.679688 C 1043.070312 383.242188 1043.152344 382.820312 1043.320312 382.417969 C 1043.484375 382.015625 1043.722656 381.65625 1044.03125 381.347656 C 1044.339844 381.039062 1044.695312 380.800781 1045.09375 380.632812 C 1045.496094 380.46875 1045.917969 380.382812 1046.351562 380.382812 C 1046.785156 380.382812 1047.203125 380.46875 1047.605469 380.632812 C 1048.007812 380.800781 1048.363281 381.039062 1048.671875 381.347656 C 1048.980469 381.65625 1049.214844 382.015625 1049.382812 382.417969 C 1049.550781 382.820312 1049.632812 383.242188 1049.632812 383.679688 Z M 1049.632812 383.679688 " fill-opacity="1" fill-rule="nonzero"/></svg>